<svg width="27" height="27" viewBox="0 0 27 27" fill="none" xmlns="http://www.w3.org/2000/svg">
<path d="M11.7101 10.7899C11.3806 10.4604 10.8464 10.4604 10.5169 10.7899C10.1874 11.1194 10.1874 11.6536 10.5169 11.9831L12.3068 13.773L10.5169 15.5628C10.1874 15.8923 10.1874 16.4266 10.5169 16.7561C10.8464 17.0856 11.3806 17.0856 11.7101 16.7561L13.5 14.9662L15.2899 16.7561C15.6194 17.0856 16.1536 17.0856 16.4831 16.7561C16.8126 16.4266 16.8126 15.8923 16.4831 15.5628L14.6932 13.773L16.4831 11.9831C16.8126 11.6536 16.8126 11.1194 16.4831 10.7899C16.1536 10.4604 15.6194 10.4604 15.2899 10.7899L13.5 12.5797L11.7101 10.7899Z" fill="white"/>
<path fill-rule="evenodd" clip-rule="evenodd" d="M18.5215 2.67044C17.2366 2.53123 15.617 2.53124 13.5509 2.53125H13.4491C11.383 2.53124 9.76344 2.53123 8.47854 2.67044C7.16731 2.81251 6.10488 3.10761 5.19776 3.76667C4.6486 4.16566 4.16566 4.6486 3.76667 5.19776C3.10761 6.10488 2.81251 7.16731 2.67044 8.47854C2.53123 9.76344 2.53124 11.383 2.53125 13.4491V13.5509C2.53124 15.617 2.53123 17.2366 2.67044 18.5215C2.81251 19.8327 3.10761 20.8951 3.76667 21.8022C4.16566 22.3514 4.6486 22.8343 5.19776 23.2333C6.10488 23.8924 7.16731 24.1875 8.47854 24.3296C9.76342 24.4688 11.3829 24.4688 13.449 24.4688H13.5509C15.617 24.4688 17.2366 24.4688 18.5215 24.3296C19.8327 24.1875 20.8951 23.8924 21.8022 23.2333C22.3514 22.8343 22.8343 22.3514 23.2333 21.8022C23.8924 20.8951 24.1875 19.8327 24.3296 18.5215C24.4688 17.2366 24.4688 15.6171 24.4688 13.551V13.4491C24.4688 11.383 24.4688 9.76342 24.3296 8.47854C24.1875 7.16731 23.8924 6.10488 23.2333 5.19776C22.8343 4.6486 22.3514 4.16566 21.8022 3.76667C20.8951 3.10761 19.8327 2.81251 18.5215 2.67044ZM6.18965 5.13189C6.76116 4.71667 7.49265 4.47463 8.6603 4.34813C9.84374 4.21991 11.372 4.21875 13.5 4.21875C15.628 4.21875 17.1563 4.21991 18.3397 4.34813C19.5073 4.47463 20.2388 4.71667 20.8103 5.13189C21.2163 5.42679 21.5732 5.78375 21.8681 6.18965C22.2833 6.76116 22.5254 7.49265 22.6519 8.6603C22.7801 9.84374 22.7812 11.372 22.7812 13.5C22.7812 15.628 22.7801 17.1563 22.6519 18.3397C22.5254 19.5073 22.2833 20.2388 21.8681 20.8103C21.5732 21.2163 21.2163 21.5732 20.8103 21.8681C20.2388 22.2833 19.5073 22.5254 18.3397 22.6519C17.1563 22.7801 15.628 22.7812 13.5 22.7812C11.372 22.7812 9.84374 22.7801 8.6603 22.6519C7.49265 22.5254 6.76116 22.2833 6.18965 21.8681C5.78375 21.5732 5.42679 21.2163 5.13189 20.8103C4.71667 20.2388 4.47463 19.5073 4.34813 18.3397C4.21991 17.1563 4.21875 15.628 4.21875 13.5C4.21875 11.372 4.21991 9.84374 4.34813 8.6603C4.47463 7.49265 4.71667 6.76116 5.13189 6.18965C5.42679 5.78375 5.78375 5.42679 6.18965 5.13189Z" fill="white"/>
</svg>
