<svg width="30" height="30" viewBox="0 0 30 30" fill="none" xmlns="http://www.w3.org/2000/svg">
<path d="M21.25 2.5H8.75C5.29822 2.5 2.5 5.29822 2.5 8.75V21.25C2.5 24.7018 5.29822 27.5 8.75 27.5H21.25C24.7018 27.5 27.5 24.7018 27.5 21.25V8.75C27.5 5.29822 24.7018 2.5 21.25 2.5Z" stroke="#376EC8" stroke-width="2" stroke-linecap="round" stroke-linejoin="round"/>
<path d="M20 14.2126C20.1543 15.2529 19.9766 16.3154 19.4922 17.2489C19.0078 18.1824 18.2414 18.9394 17.302 19.4122C16.3626 19.8851 15.2981 20.0496 14.2597 19.8825C13.2214 19.7155 12.2622 19.2252 11.5185 18.4816C10.7749 17.7379 10.2847 16.7787 10.1176 15.7404C9.9505 14.7021 10.1151 13.6375 10.5879 12.6981C11.0607 11.7587 11.8177 10.9923 12.7512 10.5079C13.6847 10.0236 14.7472 9.84587 15.7875 10.0001C16.8487 10.1575 17.8311 10.652 18.5896 11.4105C19.3482 12.1691 19.8426 13.1515 20 14.2126Z" stroke="#376EC8" stroke-width="2" stroke-linecap="round" stroke-linejoin="round"/>
<path d="M21.875 8.125H21.8875" stroke="#376EC8" stroke-width="2" stroke-linecap="round" stroke-linejoin="round"/>
</svg>
