<svg width="18" height="16" viewBox="0 0 18 16" fill="none" xmlns="http://www.w3.org/2000/svg">
<path d="M10.3075 0.90625C9.8565 0.90625 9.49093 1.27182 9.49093 1.72278C9.49093 2.17374 9.8565 2.53931 10.3075 2.53931L16.8397 2.53931C17.2907 2.53931 17.6562 2.17374 17.6562 1.72278C17.6562 1.27182 17.2907 0.90625 16.8397 0.90625H10.3075Z" fill="white"/>
<path d="M1.59778 7.43851C1.14682 7.43851 0.78125 7.80408 0.78125 8.25504C0.78125 8.706 1.14682 9.07157 1.59778 9.07157H16.8397C17.2907 9.07157 17.6562 8.706 17.6562 8.25504C17.6562 7.80408 17.2907 7.43851 16.8397 7.43851H1.59778Z" fill="white"/>
<path d="M5.95262 13.9708C5.50166 13.9708 5.13609 14.3363 5.13609 14.7873C5.13609 15.2383 5.50166 15.6038 5.95262 15.6038L16.8397 15.6038C17.2907 15.6038 17.6562 15.2383 17.6562 14.7873C17.6562 14.3363 17.2907 13.9708 16.8397 13.9708L5.95262 13.9708Z" fill="white"/>
</svg>
