<svg width="30" height="30" viewBox="0 0 30 30" fill="none" xmlns="http://www.w3.org/2000/svg">
<g clip-path="url(#clip0_363:8)">
<path d="M24.1508 28.4172C23.9165 28.4172 23.6837 28.3479 23.4841 28.2125L15.9409 23.0958L11.8951 26.0069C11.5778 26.2351 11.1689 26.2925 10.8004 26.1608C10.4325 26.0288 10.153 25.724 10.0533 25.346L8.02183 17.6475L0.763325 14.8721C0.306373 14.6973 0.00332212 14.2601 -2.88715e-06 13.7709C-0.0033279 13.2816 0.293707 12.8403 0.748442 12.6594L28.3479 1.67732C28.4732 1.62412 28.6057 1.5934 28.7393 1.58517C28.7872 1.58232 28.8351 1.58232 28.8828 1.58501C29.1596 1.60147 29.4314 1.71421 29.6436 1.92226C29.6656 1.94379 29.6865 1.9658 29.7063 1.98876C29.882 2.18953 29.9786 2.43431 29.9968 2.68369C30.0013 2.74639 30.0009 2.80988 29.9954 2.87337C29.9916 2.91865 29.9851 2.96378 29.9759 3.00859L25.3173 27.452C25.2424 27.8447 24.9751 28.1734 24.6059 28.3265C24.4594 28.3873 24.3047 28.4172 24.1508 28.4172ZM16.6032 20.6752L23.3224 25.2328L26.9473 6.21311L13.8552 18.8111L16.5715 20.6538C16.5825 20.6606 16.5929 20.6679 16.6032 20.6752ZM11.0097 19.6617L11.9094 23.0706L13.8477 21.6758L11.3096 19.9541C11.1917 19.8743 11.0907 19.7749 11.0097 19.6617ZM4.45488 13.7406L9.43892 15.6462C9.79596 15.7826 10.0654 16.0828 10.163 16.4524L10.795 18.8478C10.824 18.5715 10.9493 18.3116 11.1527 18.1157L23.6277 6.11177L4.45488 13.7406Z" fill="#376EC8"/>
</g>
<defs>
<clipPath id="clip0_363:8">
<rect width="30" height="30" fill="white"/>
</clipPath>
</defs>
</svg>
